<svg width="12" height="14" viewBox="0 0 12 14" fill="none" xmlns="http://www.w3.org/2000/svg">
<path d="M11.2201 8.19681C11.0597 6.10887 10.0876 4.80044 9.22998 3.64582C8.43586 2.5769 7.75 1.65383 7.75 0.292166C7.75 0.182791 7.68875 0.0828225 7.59163 0.0327014C7.4942 -0.0177205 7.37714 -0.00946268 7.28857 0.0549045C6.00057 0.976553 4.92591 2.52992 4.55051 4.01206C4.28989 5.04394 4.25541 6.20397 4.25057 6.97011C3.06112 6.71606 2.79168 4.93686 2.78883 4.91747C2.77543 4.82519 2.71905 4.74488 2.63702 4.70102C2.55414 4.65773 2.45671 4.65459 2.37269 4.69618C2.31032 4.72637 0.841711 5.47258 0.756262 8.45198C0.750273 8.5511 0.75 8.65052 0.75 8.74992C0.75 11.6444 3.10525 13.9996 6 13.9996C6.00399 13.9998 6.00826 14.0004 6.01168 13.9996C6.01282 13.9996 6.01395 13.9996 6.01537 13.9996C8.903 13.9913 11.25 11.6393 11.25 8.74992C11.25 8.60437 11.2201 8.19681 11.2201 8.19681ZM6 13.4163C5.03498 13.4163 4.25 12.5801 4.25 11.5522C4.25 11.5172 4.24973 11.4818 4.25227 11.4385C4.26395 11.0051 4.34628 10.7091 4.43657 10.5123C4.60577 10.8758 4.90825 11.2098 5.39959 11.2098C5.5608 11.2098 5.69126 11.0794 5.69126 10.9182C5.69126 10.503 5.69982 10.0239 5.80321 9.59153C5.89522 9.20817 6.11509 8.80031 6.39367 8.47336C6.51756 8.89774 6.75912 9.2412 6.99496 9.57644C7.33249 10.056 7.68139 10.5519 7.74264 11.3975C7.74634 11.4476 7.75006 11.4981 7.75006 11.5522C7.75 12.58 6.96502 13.4163 6 13.4163Z" fill="white"/>
</svg>
