<svg width="14" height="14" viewBox="0 0 14 14" fill="none" xmlns="http://www.w3.org/2000/svg">
<g clip-path="url(#clip0_1_320)">
<path d="M10.8572 3.14282C10.936 3.13898 11.015 3.13705 11.0943 3.13705C11.6149 3.13705 12.1227 3.22015 12.6026 3.37994C13.1051 2.705 13.3769 1.89003 13.3769 1.03329C13.3769 0.806854 13.1933 0.623138 12.9667 0.623138C12.0885 0.623138 11.2766 0.912064 10.6208 1.39977C10.7801 1.87903 10.8629 2.38606 10.8629 2.90581C10.8629 2.98495 10.861 3.064 10.8572 3.14282Z" fill="white"/>
<path d="M3.99828 9.99649C3.9015 9.89951 3.81018 9.79932 3.72356 9.69635L0.120163 13.2999C-0.0400543 13.46 -0.0400543 13.7197 0.120163 13.8798C0.200272 13.9599 0.305161 14 0.410156 14C0.515152 14 0.620041 13.9599 0.70015 13.8798L4.30344 10.2766C4.1993 10.1888 4.09825 10.0965 4.00095 9.99905C4.00009 9.9982 3.99913 9.99734 3.99828 9.99649Z" fill="white"/>
<path d="M8.88052 3.71928C8.93372 3.95587 8.968 4.19513 8.98477 4.43503L10.0108 3.40921C10.0318 3.24344 10.0426 3.07542 10.0426 2.9057C10.0426 1.8535 9.6329 0.864212 8.88885 0.120163C8.81184 0.0431518 8.7076 0 8.59875 0C8.49002 0 8.38567 0.0431518 8.30876 0.120163C7.9612 0.467728 7.68669 0.868805 7.49261 1.30481C7.53171 1.33546 7.56941 1.36826 7.60498 1.40393C8.24222 2.04117 8.68324 2.84183 8.88052 3.71928Z" fill="white"/>
<path d="M13.8799 5.11115C13.1358 4.3671 12.1465 3.95737 11.0943 3.95737C10.9246 3.95737 10.7565 3.96815 10.5908 3.9893L9.56721 5.01277C10.7117 5.09224 11.7769 5.57588 12.5961 6.39502C12.6318 6.43069 12.6645 6.46829 12.6952 6.50728C13.1289 6.31438 13.528 6.04169 13.8743 5.69669C13.9142 5.65823 13.9467 5.61145 13.9688 5.55815C14.0323 5.40488 13.9971 5.22853 13.8799 5.11115Z" fill="white"/>
<path d="M7.12326 6.29643L8.14374 5.27606C8.29424 4.10594 7.92178 2.88081 7.02499 1.98402C6.94798 1.90712 6.84363 1.86386 6.73489 1.86386C6.62616 1.86386 6.5217 1.90712 6.44479 1.98413C6.09242 2.3365 5.82112 2.73961 5.63046 3.17017C5.66891 3.20039 5.70598 3.23276 5.74101 3.2679C6.56015 4.08693 7.04379 5.15195 7.12326 6.29643Z" fill="white"/>
<path d="M9.23055 5.82123C9.06071 5.82123 8.89259 5.83202 8.72682 5.85316L7.70314 6.87663C8.84773 6.9561 9.91286 7.43974 10.732 8.25877C10.7677 8.29445 10.8007 8.33215 10.8313 8.37125C11.2672 8.17728 11.6683 7.90266 12.016 7.5551C12.0929 7.4782 12.1361 7.37384 12.1361 7.26511C12.1361 7.15627 12.0929 7.05202 12.016 6.97511C11.2719 6.23096 10.2827 5.82123 9.23055 5.82123Z" fill="white"/>
<path d="M6.31496 6.63353C6.31496 5.58122 5.90513 4.59193 5.16108 3.84799C5.08097 3.76788 4.97598 3.72783 4.87109 3.72783C4.76609 3.72783 4.6611 3.76788 4.5811 3.84799C3.1431 5.28589 3.05145 7.56813 4.30595 9.1138L6.28303 7.13672C6.30407 6.97105 6.31496 6.80315 6.31496 6.63353Z" fill="white"/>
<path d="M7.36658 7.68509C7.19675 7.68509 7.02852 7.69598 6.86275 7.71703L4.88577 9.694C5.58528 10.2632 6.45195 10.5727 7.36647 10.5728H7.36679C8.41878 10.5728 9.40796 10.1631 10.152 9.41907C10.229 9.34216 10.2722 9.2377 10.2722 9.12897C10.2722 9.02023 10.229 8.91588 10.152 8.83897C9.40796 8.09482 8.41878 7.68509 7.36658 7.68509Z" fill="white"/>
</g>
<defs>
<clipPath id="clip0_1_320">
<rect width="14" height="14" fill="white"/>
</clipPath>
</defs>
</svg>
